<svg
    fill="#9B59B6"
    xmlns="http://www.w3.org/2000/svg"
    viewBox="0 0 16 17"
    width="160"
    height="170"
>
  <path
    d="
      M 8 1
      C 4.691 1 2 3.691 2 7
      v 3.667
      c 0 1.728 1.212 3.17 2.852 3.614
      c 0.105 0.02 0.212 0.039 0.32 0.058
      A 3.5 3.5 0 0 0 8 16
      c 1.5 0 2.807 -0.817 3.363 -2.009
      c 0.108 -0.019 0.215 -0.038 0.32 -0.058
      C 12.788 13.838 14 12.396 14 10.667
      V 7
      c 0 -3.309 -2.691 -6 -6 -6
      z

      m 0 1
      c 2.761 0 5 2.239 5 5
      v 0
      a 2.5 2.5 0 0 1 -2 3
      V 7
      c 0 -2.206 -1 -4 -3 -4
      S 4 3 4 7
      v 3
      a 2.5 2.5 0 0 1 -2 -2.45
      V 7
      c 0 -2.761 2.239 -5 5 -5
      z
    "
  />

  <rect 
  x="2.5"
  y="8"
  width="4" height="6.5" rx="2" />


  <rect 
  x="10"
  y="8"
  width="4" height="7" rx="2" />
</svg>
